<?xml version="1.0" standalone="no"?>
<!DOCTYPE svg PUBLIC "-//W3C//DTD SVG 20010904//EN"
 "http://www.w3.org/TR/2001/REC-SVG-20010904/DTD/svg10.dtd">
<svg version="1.0" xmlns="http://www.w3.org/2000/svg"
 width="1024.000000pt" height="1024.000000pt" viewBox="0 0 1024.000000 1024.000000"
 preserveAspectRatio="xMidYMid meet">
<metadata>
Created by potrace 1.14, written by Peter Selinger 2001-2017
</metadata>
<g transform="translate(0.000000,1024.000000) scale(0.100000,-0.100000)"
fill="#000000" stroke="none">
<path d="M6924 8276 c-28 -12 -1717 -1692 -1787 -1777 -38 -45 -81 -132 -102
-203 -17 -60 -25 -202 -11 -224 4 -6 5 -12 2 -12 -10 0 27 -107 55 -159 17
-30 46 -72 65 -95 l35 -40 -37 -35 -36 -34 -886 885 c-882 881 -951 948 -970
948 -5 0 -15 7 -23 16 -24 29 -136 79 -224 100 -86 20 -184 20 -280 0 -87 -19
-215 -90 -288 -159 -75 -72 -143 -182 -171 -278 -60 -206 -19 -403 123 -589
45 -58 -53 41 941 -954 l874 -876 -1061 -1062 c-584 -585 -1068 -1070 -1076
-1078 -40 -44 -74 -118 -93 -204 -35 -155 64 -351 216 -430 144 -74 303 -61
440 37 14 10 505 498 1093 1084 l1067 1067 272 -272 272 -271 157 158 158 159
978 -977 c1008 -1006 1008 -1006 1113 -1037 96 -29 206 -17 299 32 71 37 158
125 189 192 35 75 36 83 37 183 0 79 -3 91 -39 165 -38 78 -50 91 -1284 1326
l-1246 1248 34 35 33 35 41 -33 c51 -41 96 -69 96 -61 0 4 6 1 14 -5 55 -46
266 -66 372 -36 32 10 64 20 69 23 6 4 15 7 21 8 50 8 182 134 984 935 483
484 888 892 899 907 30 43 23 124 -15 163 -51 53 -103 68 -156 45 -19 -8 -307
-287 -672 -650 -351 -350 -640 -636 -643 -636 -2 0 -45 40 -94 89 l-89 89 643
644 c521 522 645 650 654 681 32 108 -70 202 -179 165 -16 -6 -304 -286 -667
-649 -352 -351 -642 -639 -645 -639 -14 0 -178 169 -174 180 2 6 285 293 629
638 344 345 633 639 642 654 39 63 8 156 -63 193 -37 19 -99 19 -125 0 -11 -8
-307 -301 -657 -651 l-637 -637 -86 85 c-47 47 -85 90 -85 96 0 6 284 295 630
641 386 386 636 643 644 663 27 66 5 147 -51 183 -36 24 -100 29 -139 11z"/>
</g>
</svg>
